<svg width="35" height="35" viewBox="0 0 35 35" fill="none" xmlns="http://www.w3.org/2000/svg">
<path fill-rule="evenodd" clip-rule="evenodd" d="M35.0004 1.23746C35.0004 0.554011 34.4463 -3.62947e-05 33.7629 -3.63626e-05L21.6254 -3.75684e-05C19.3472 -3.77947e-05 17.5004 1.84679 17.5004 4.12496L17.5004 12.8333H17.5001V8.25C17.5001 3.69365 13.8064 0 9.2501 0H1.2376C0.554145 0 9.7244e-05 0.554047 9.72059e-05 1.2375L9.65306e-05 13.375C9.64039e-05 15.6532 1.84692 17.5 4.1251 17.5H8.20757C3.67074 17.5228 2.57061e-06 21.2077 0 25.7499V33.7624C0 34.4458 0.554047 34.9999 1.2375 34.9999H13.375C15.6532 34.9999 17.5 33.1531 17.5 30.8749L17.5 20.7083H17.5003V26.7501C17.5003 31.3065 21.1939 35.0001 25.7503 35.0001H33.7628C34.4462 35.0001 35.0003 34.4461 35.0003 33.7626V21.6251C35.0003 19.3469 33.1535 17.5001 30.8753 17.5001H23.0416V17.5H26.7504C31.3067 17.5 35.0004 13.8063 35.0004 9.24996V1.23746Z" fill="#55B68F"/>
</svg>
